<svg
  width="37"
  height="32"
  viewBox="0 0 37 32"
  fill="none"
  xmlns="http://www.w3.org/2000/svg"
>
  <path
    d="M33.5788 3.14349C31.7922 1.11636 29.3138 0 26.6002 0C22.7836 0 20.3673 2.27941 19.0124 4.19165C18.6609 4.68785 18.3618 5.18541 18.1108 5.6536C17.8597 5.18541 17.5607 4.68785 17.2091 4.19165C15.8542 2.27941 13.4379 0 9.62134 0C6.9077 0 4.42928 1.11643 2.64268 3.14356C0.938576 5.07731 0 7.66714 0 10.436C0 13.4499 1.1767 16.2532 3.70315 19.2579C5.96113 21.9434 9.20953 24.7115 12.9711 27.9169C14.3728 29.1113 15.8223 30.3465 17.3655 31.6967L17.4118 31.7373C17.6119 31.9125 17.8613 32 18.1108 32C18.3602 32 18.6096 31.9124 18.8097 31.7373L18.8561 31.6967C20.3992 30.3465 21.8487 29.1114 23.2506 27.9167C27.012 24.7116 30.2604 21.9434 32.5183 19.2579C35.0448 16.2531 36.2215 13.4499 36.2215 10.436C36.2215 7.66714 35.2829 5.07731 33.5788 3.14349ZM21.8739 26.3015C20.6656 27.3311 19.422 28.3908 18.1108 29.5307C16.7996 28.3909 15.5559 27.3312 14.3474 26.3013C6.98573 20.0282 2.12235 15.8838 2.12235 10.436C2.12235 8.18415 2.87261 6.09264 4.23494 4.54679C5.61292 2.98339 7.5258 2.12235 9.62134 2.12235C12.531 2.12235 14.4119 3.91489 15.4773 5.41865C16.433 6.76734 16.9317 8.12692 17.1018 8.6488C17.2441 9.08566 17.6513 9.3813 18.1108 9.3813C18.5702 9.3813 18.9774 9.08566 19.1197 8.6488C19.2898 8.12692 19.7885 6.76734 20.7442 5.41858C21.8096 3.91489 23.6905 2.12235 26.6002 2.12235C28.6957 2.12235 30.6086 2.98339 31.9865 4.54679C33.3489 6.09264 34.0992 8.18415 34.0992 10.436C34.0992 15.8838 29.2358 20.0282 21.8739 26.3015Z"
    fill="#48BA86"
  />
</svg>
