<svg
  width="37"
  height="32"
  viewBox="0 0 37 32"
  fill="none"
  xmlns="http://www.w3.org/2000/svg"
>
  <path
    d="M33.5788 3.14349C31.7922 1.11636 29.3138 0 26.6002 0C22.7836 0 20.3673 2.27941 19.0124 4.19165C18.6609 4.68785 18.3618 5.18541 18.1108 5.6536C17.8597 5.18541 17.5607 4.68785 17.2091 4.19165C15.8542 2.27941 13.4379 0 9.62134 0C6.9077 0 4.42928 1.11643 2.64268 3.14356C0.938576 5.07731 0 7.66714 0 10.436C0 13.4499 1.1767 16.2532 3.70315 19.2579C5.96113 21.9434 9.20953 24.7115 12.9711 27.9169C14.3728 29.1113 15.8223 30.3465 17.3655 31.6967L17.4118 31.7373C17.6119 31.9125 17.8613 32 18.1108 32C18.3602 32 18.6096 31.9124 18.8097 31.7373L18.8561 31.6967C20.3992 30.3465 21.8487 29.1114 23.2506 27.9167C27.012 24.7116 30.2604 21.9434 32.5184 19.2579C35.0448 16.2531 36.2215 13.4499 36.2215 10.436C36.2215 7.66714 35.2829 5.07731 33.5788 3.14349Z"
    fill="#48BA86"
  />
</svg>
