<svg
  width="32"
  height="32"
  viewBox="0 0 32 32"
  fill="none"
  xmlns="http://www.w3.org/2000/svg"
>
  <g opacity="0.5">
    <mask
      id="mask0"
      mask-type="alpha"
      maskUnits="userSpaceOnUse"
      x="0"
      y="0"
      width="32"
      height="32"
    >
      <g clip-path="url(#clip0)">
        <path
          fill-rule="evenodd"
          clip-rule="evenodd"
          d="M17.6725 5.6889C17.4051 5.57545 17.0964 5.69985 16.9828 5.96721C16.8691 6.23457 16.9939 6.54356 17.2612 6.65722C18.4973 7.18224 19.5598 8.04416 20.3336 9.14927C22.6086 12.3983 21.8161 16.8927 18.5671 19.1677C15.318 21.4429 10.8236 20.6504 8.54864 17.4012C6.27346 14.1522 7.06595 9.6577 10.3152 7.38275C11.248 6.72958 12.2884 6.31669 13.4077 6.15512C13.6951 6.11375 13.8946 5.8471 13.8533 5.55952C13.8118 5.27191 13.5449 5.07237 13.2575 5.11393C11.9736 5.29899 10.7807 5.77243 9.71179 6.52104C5.98742 9.12887 5.07906 14.2804 7.6869 18.0048C8.99073 19.8668 10.9305 21.0251 13.0101 21.3917C15.0895 21.7582 17.3084 21.3335 19.1706 20.0297C22.8948 17.4218 23.8031 12.2703 21.1955 8.54593C20.3084 7.27923 19.0904 6.29115 17.6725 5.6889Z"
          fill="black"
        />
        <path
          fill-rule="evenodd"
          clip-rule="evenodd"
          d="M27.2265 27.263L22.7551 20.8772C26.3085 17.0028 26.7101 11.1603 23.6676 6.8148C21.942 4.35042 19.3599 2.70537 16.3971 2.18294C13.4341 1.66048 10.4451 2.32321 7.98069 4.04878C5.51611 5.77432 3.87126 8.35643 3.3488 11.3195C2.82637 14.2823 3.48889 17.2712 5.21467 19.7357C6.94025 22.2 9.52215 23.8449 12.485 24.3673C14.6114 24.7422 16.7649 24.507 18.741 23.6878L23.2125 30.0737C23.5866 30.6082 24.1484 30.9652 24.7945 31.0791C25.4404 31.193 26.0905 31.0497 26.625 30.6754C27.7314 29.9004 28.0013 28.3698 27.2265 27.263ZM26.0215 29.8137C25.7172 30.0265 25.3465 30.108 24.9772 30.0429C24.6078 29.9777 24.2873 29.7744 24.0742 29.4703L19.3558 22.7318C19.2733 22.6137 19.1496 22.5389 19.0162 22.5154C18.9135 22.4973 18.8051 22.5094 18.7047 22.5557C16.8157 23.4264 14.7279 23.6945 12.6677 23.3313C9.98153 22.8576 7.64071 21.3664 6.07638 19.1323C2.8468 14.52 3.97174 8.14008 8.58407 4.91049C10.8184 3.34599 13.5281 2.7453 16.2144 3.21897C18.9005 3.6926 21.2414 5.18384 22.8059 7.41818C25.6411 11.4675 25.1777 16.9506 21.7036 20.4558C21.5245 20.6365 21.5004 20.9193 21.6464 21.1278L26.3648 27.8664C26.807 28.4978 26.6529 29.3713 26.0215 29.8137Z"
          fill="black"
        />
        <path
          fill-rule="evenodd"
          clip-rule="evenodd"
          d="M18.1198 10.6994C17.9532 10.4614 17.6254 10.4036 17.3873 10.5702L14.5704 12.5426L12.5978 9.7257C12.4313 9.48778 12.1032 9.42994 11.8653 9.59653C11.6274 9.76312 11.5695 10.0912 11.7361 10.3291L13.7085 13.1461L10.8916 15.1185C10.6537 15.2851 10.5959 15.6131 10.7625 15.851C10.8456 15.9701 10.9694 16.044 11.1019 16.0673C11.2345 16.0907 11.3759 16.0636 11.495 15.9802L14.3118 14.0078L16.2842 16.8247C16.3676 16.9437 16.4914 17.0177 16.6238 17.041C16.7565 17.0644 16.8979 17.0373 17.017 16.9539C17.2549 16.7873 17.3127 16.4592 17.1461 16.2213L15.1736 13.4045L17.9906 11.4319C18.2286 11.2653 18.2864 10.9373 18.1198 10.6994Z"
          fill="black"
        />
        <path
          fill-rule="evenodd"
          clip-rule="evenodd"
          d="M15.3456 6.13825C15.6308 6.18854 15.9045 5.99689 15.9548 5.71146C16.0051 5.42623 15.8135 5.15252 15.5282 5.10222C15.2428 5.05189 14.9691 5.24355 14.9188 5.52878C14.8685 5.81421 15.0601 6.08792 15.3456 6.13825Z"
          fill="black"
        />
      </g>
    </mask>
    <g mask="url(#mask0)">
      <rect
        x="-15.1527"
        y="-21.9625"
        width="55.8"
        height="63.6"
        transform="rotate(10 -15.1527 -21.9625)"
        fill="#48BA86"
      />
    </g>
  </g>
  <defs>
    <clipPath id="clip0">
      <rect
        x="5.30469"
        y="0.227051"
        width="27"
        height="27"
        transform="rotate(10 5.30469 0.227051)"
        fill="white"
      />
    </clipPath>
  </defs>
</svg>
